# xmcd
#
# Track frame offsets:
#	150
#	18407
#	35830
#	60057
#	99750
#	134792
#
# Disc length: 2082 seconds
#
# Revision: 1
# Processed by: cddbd v1.5.2PL0 Copyright (c) Steve Scherf et al.
# Submitted via: audiograbber 1.83.01
#
DISCID=46082006
DTITLE=D Influence - Maxi
DYEAR=1995
DGENRE=R&B
TTITLE0=Midnite ( Original Radio Version )
TTITLE1=Midnite ( Shoesoul Version )
TTITLE2=Midnite ( T-Money Feel Da Funk Remix Version )
TTITLE3=Midnite ( D-Influence Special R.E.M.I.X.E.D Version )
TTITLE4=Midnite ( Doctor Scratch Paradox Stomp Version )
TTITLE5=Midnite ( D-Influence Original Album Version )
EXTD=
EXTT0=
EXTT1=
EXTT2=
EXTT3=
EXTT4=
EXTT5=
PLAYORDER=
